<svg width="112" height="112" viewBox="0 0 112 112" fill="none" xmlns="http://www.w3.org/2000/svg">
<path d="M55.7461 89.1938C55.7461 93.0961 56.4708 96.8311 57.6973 100.343H11.1492C8.19227 100.343 5.35642 99.1684 3.26553 97.0775C1.17465 94.9866 0 92.1508 0 89.1938V11.1492C0 5.01715 5.01715 0 11.1492 0H89.1938C92.1508 0 94.9866 1.17465 97.0775 3.26553C99.1684 5.35642 100.343 8.19227 100.343 11.1492V57.6973C96.8311 56.4708 93.0961 55.7461 89.1938 55.7461V11.1492H11.1492V89.1938H55.7461ZM61.0978 51.7882L45.7676 71.5223L34.8413 58.3662L19.5112 78.0446H57.6973C59.9271 71.801 63.9408 66.3937 69.1252 62.4914L61.0978 51.7882ZM94.7684 83.6192V66.8954H83.6192V83.6192H66.8954V94.7684H83.6192V111.492H94.7684V94.7684H111.492V83.6192H94.7684Z" fill="black"/>
</svg>
